<svg xmlns="http://www.w3.org/2000/svg" viewBox="0 0 96 96" role="img" aria-labelledby="title desc">
  <title id="title">AI Room shared agent avatar</title>
  <desc id="desc">Shared room mark connecting warm Claude Code and blue Codex lanes.</desc>
  <defs>
    <linearGradient id="bg" x1="10" x2="86" y1="12" y2="84" gradientUnits="userSpaceOnUse">
      <stop offset="0" stop-color="#0f766e"/>
      <stop offset=".48" stop-color="#174ea6"/>
      <stop offset="1" stop-color="#4f46e5"/>
    </linearGradient>
    <radialGradient id="centerGlow" cx="50%" cy="48%" r="55%">
      <stop offset="0" stop-color="#ccfbf1" stop-opacity=".32"/>
      <stop offset="1" stop-color="#020617" stop-opacity="0"/>
    </radialGradient>
  </defs>
  <rect x="6" y="6" width="84" height="84" rx="22" fill="url(#bg)"/>
  <rect x="7.5" y="7.5" width="81" height="81" rx="20.5" fill="none" stroke="#a7f3d0" stroke-opacity=".24" stroke-width="3"/>
  <circle cx="48" cy="48" r="37" fill="url(#centerGlow)"/>
  <path d="M30 48h36" fill="none" stroke="#e2f8ff" stroke-linecap="round" stroke-width="6" opacity=".76"/>
  <path d="M36 35c8 0 16 26 24 26" fill="none" stroke="#c4b5fd" stroke-linecap="round" stroke-width="4" opacity=".72"/>
  <circle cx="29" cy="48" r="15" fill="#ee7652"/>
  <circle cx="67" cy="48" r="15" fill="#5c7cff"/>
  <g fill="none" stroke="#fff7ec" stroke-linecap="round" stroke-width="3">
    <path d="M29 38v20"/>
    <path d="M19 48h20"/>
    <path d="M22 41l14 14"/>
    <path d="M36 41 22 55"/>
  </g>
  <g fill="none" stroke="#eef6ff" stroke-linecap="round" stroke-linejoin="round" stroke-width="4">
    <path d="M62 41 56 48l6 7"/>
    <path d="M72 41 78 48l-6 7"/>
  </g>
  <circle cx="48" cy="48" r="5" fill="#e2f8ff"/>
</svg>
